<mxfile host="app.diagrams.net" modified="2023-03-05T15:07:43.648Z" agent="5.0 (Linux; Android 12; 21121119SG) AppleWebKit/537.36 (KHTML, like Gecko) Chrome/103.0.0.0 Mobile Safari/537.36" etag="msZWM9lwt_mDsbGVzOUC" version="21.0.2" type="github">
  <diagram name="Halaman-1" id="8Q7ZQFLgJwUDAVGEwQ4Y">
    <mxGraphModel dx="378" dy="734" grid="1" gridSize="10" guides="1" tooltips="1" connect="1" arrows="1" fold="1" page="1" pageScale="1" pageWidth="827" pageHeight="1169" math="0" shadow="0">
      <root>
        <mxCell id="0" />
        <mxCell id="1" parent="0" />
        <mxCell id="iL5lUZW5ViCElGD53zwG-1" value="" style="rounded=0;whiteSpace=wrap;html=1;" vertex="1" parent="1">
          <mxGeometry x="580" y="230" width="110" height="60" as="geometry" />
        </mxCell>
        <mxCell id="iL5lUZW5ViCElGD53zwG-4" value="" style="rounded=0;whiteSpace=wrap;html=1;" vertex="1" parent="1">
          <mxGeometry x="240" y="230" width="110" height="60" as="geometry" />
        </mxCell>
      </root>
    </mxGraphModel>
  </diagram>
</mxfile>
